<svg width="149" height="33" viewBox="0 0 149 33" fill="none"
    xmlns="http://www.w3.org/2000/svg">
    <path d="M0.87512 19.3162L0.75 19.3883V19.5327V28.0105V28.155L0.87512 28.2271L8.22649 32.466L8.35137 32.538L8.47625 32.466L15.8276 28.2271L15.9527 28.155V28.0105V19.5327V19.3883L15.8276 19.3162L8.47625 15.0773L8.35137 15.0053L8.22649 15.0773L0.87512 19.3162ZM15.0617 19.9026V27.6412L8.35137 31.5105L1.64101 27.6412V19.9026L8.35137 16.0334L15.0617 19.9026Z" fill="#01F5FF" stroke="#01F5FF" stroke-width="0.5"/>
    <path d="M17.172 19.3162L17.0469 19.3883V19.5327V28.0105V28.155L17.172 28.2271L24.5234 32.466L24.6482 32.538L24.7731 32.466L32.1245 28.2271L32.2496 28.155V28.0105V19.5327V19.3883L32.1245 19.3162L24.7731 15.0773L24.6482 15.0053L24.5234 15.0773L17.172 19.3162ZM31.3586 19.9026V27.6412L24.6482 31.5105L17.9379 27.6412V19.9026L24.6482 16.0334L31.3586 19.9026Z" fill="#0274F9" stroke="#0274F9" stroke-width="0.5"/>
    <path d="M9.17492 5.02232L9.0498 5.09446V5.23889V13.7167V13.8611L9.17492 13.9333L16.5263 18.1721L16.6512 18.2442L16.7761 18.1721L24.1274 13.9333L24.2525 13.8611V13.7167V5.23889V5.09446L24.1274 5.02232L16.7761 0.783425L16.6512 0.711417L16.5263 0.783425L9.17492 5.02232ZM23.3615 5.60878V13.3474L16.6512 17.2167L9.94081 13.3474V5.60878L16.6512 1.7395L23.3615 5.60878Z" fill="#00B3FE" stroke="#00B3FE" stroke-width="0.5"/>
    <path d="M55.08 19.28C55.064 19.664 54.912 19.976 54.624 20.216C54.336 20.456 54 20.576 53.616 20.576H45.696C45.888 21.52 46.328 22.264 47.016 22.808C47.704 23.336 48.48 23.6 49.344 23.6C50 23.6 50.512 23.544 50.88 23.432C51.248 23.304 51.536 23.176 51.744 23.048C51.968 22.904 52.12 22.808 52.2 22.76C52.488 22.616 52.76 22.544 53.016 22.544C53.352 22.544 53.64 22.664 53.88 22.904C54.12 23.144 54.24 23.424 54.24 23.744C54.24 24.176 54.016 24.568 53.568 24.92C53.12 25.288 52.52 25.6 51.768 25.856C51.016 26.112 50.256 26.24 49.488 26.24C48.144 26.24 46.968 25.96 45.96 25.4C44.968 24.84 44.2 24.072 43.656 23.096C43.112 22.104 42.84 20.992 42.84 19.76C42.84 18.384 43.128 17.176 43.704 16.136C44.28 15.096 45.04 14.304 45.984 13.76C46.928 13.2 47.936 12.92 49.008 12.92C50.064 12.92 51.056 13.208 51.984 13.784C52.928 14.36 53.68 15.136 54.24 16.112C54.8 17.088 55.08 18.144 55.08 19.28ZM49.008 15.56C47.152 15.56 46.056 16.432 45.72 18.176H52.008V18.008C51.944 17.336 51.616 16.76 51.024 16.28C50.432 15.8 49.76 15.56 49.008 15.56ZM63.1219 26.24C61.9699 26.24 60.9459 26.096 60.0499 25.808C59.1539 25.52 58.3139 25.032 57.5299 24.344C57.0979 23.96 56.8819 23.536 56.8819 23.072C56.8819 22.704 57.0179 22.384 57.2899 22.112C57.5619 21.824 57.8899 21.68 58.2739 21.68C58.5779 21.68 58.8499 21.776 59.0899 21.968C59.7299 22.496 60.3539 22.88 60.9619 23.12C61.5699 23.36 62.2899 23.48 63.1219 23.48C64.0179 23.48 64.7859 23.28 65.4259 22.88C66.0819 22.48 66.4099 21.984 66.4099 21.392C66.4099 20.672 66.0899 20.112 65.4499 19.712C64.8099 19.296 63.7939 18.984 62.4019 18.776C58.8979 18.264 57.1459 16.632 57.1459 13.88C57.1459 12.872 57.4099 12 57.9379 11.264C58.4659 10.512 59.1859 9.944 60.0979 9.56C61.0099 9.16 62.0259 8.96 63.1459 8.96C64.1539 8.96 65.0979 9.112 65.9779 9.416C66.8739 9.72 67.6179 10.12 68.2099 10.616C68.6739 10.984 68.9059 11.408 68.9059 11.888C68.9059 12.256 68.7699 12.584 68.4979 12.872C68.2259 13.144 67.9059 13.28 67.5379 13.28C67.2979 13.28 67.0819 13.208 66.8899 13.064C66.4739 12.728 65.8899 12.424 65.1379 12.152C64.4019 11.864 63.7379 11.72 63.1459 11.72C62.1379 11.72 61.3539 11.912 60.7939 12.296C60.2499 12.664 59.9779 13.152 59.9779 13.76C59.9779 14.448 60.2579 14.968 60.8179 15.32C61.3939 15.672 62.2899 15.96 63.5059 16.184C64.8819 16.424 65.9779 16.736 66.7939 17.12C67.6259 17.488 68.2499 18 68.6659 18.656C69.0819 19.296 69.2899 20.152 69.2899 21.224C69.2899 22.232 69.0019 23.12 68.4259 23.888C67.8659 24.64 67.1139 25.224 66.1699 25.64C65.2259 26.04 64.2099 26.24 63.1219 26.24ZM81.3302 13.16C81.7462 13.16 82.0902 13.304 82.3622 13.592C82.6342 13.864 82.7702 14.208 82.7702 14.624V24.824C82.7702 26.904 82.2102 28.416 81.0902 29.36C79.9702 30.32 78.4742 30.8 76.6022 30.8C76.0582 30.8 75.4982 30.752 74.9222 30.656C74.3622 30.576 73.9062 30.464 73.5542 30.32C72.7702 29.984 72.3782 29.52 72.3782 28.928C72.3782 28.816 72.4022 28.688 72.4502 28.544C72.5462 28.192 72.7062 27.92 72.9302 27.728C73.1702 27.552 73.4262 27.464 73.6982 27.464C73.8582 27.464 74.0102 27.488 74.1542 27.536C74.2662 27.584 74.4582 27.664 74.7302 27.776C75.0182 27.888 75.3142 27.976 75.6182 28.04C75.9382 28.12 76.2662 28.16 76.6022 28.16C77.7382 28.16 78.5702 27.912 79.0982 27.416C79.6422 26.936 79.9142 26.104 79.9142 24.92V24.68C79.0822 25.72 77.7862 26.24 76.0262 26.24C75.1942 26.24 74.4582 26.048 73.8182 25.664C73.1782 25.264 72.6822 24.72 72.3302 24.032C71.9782 23.328 71.8022 22.528 71.8022 21.632V14.624C71.8022 14.208 71.9382 13.864 72.2102 13.592C72.4822 13.304 72.8262 13.16 73.2422 13.16C73.6582 13.16 74.0022 13.304 74.2742 13.592C74.5462 13.864 74.6822 14.208 74.6822 14.624V20.768C74.6822 21.776 74.8982 22.504 75.3302 22.952C75.7782 23.384 76.4262 23.6 77.2742 23.6C78.1062 23.6 78.7462 23.36 79.1942 22.88C79.6582 22.384 79.8902 21.68 79.8902 20.768V14.624C79.8902 14.208 80.0262 13.864 80.2982 13.592C80.5702 13.304 80.9142 13.16 81.3302 13.16ZM88.6001 24.536C88.6001 24.952 88.4641 25.304 88.1921 25.592C87.9201 25.864 87.5761 26 87.1601 26C86.7441 26 86.4001 25.864 86.1281 25.592C85.8561 25.304 85.7201 24.952 85.7201 24.536V14.624C85.7201 14.208 85.8561 13.864 86.1281 13.592C86.4001 13.304 86.7441 13.16 87.1601 13.16C87.5761 13.16 87.9201 13.304 88.1921 13.592C88.4641 13.864 88.6001 14.208 88.6001 14.624V24.536ZM87.1361 11.6C86.5921 11.6 86.2081 11.512 85.9841 11.336C85.7601 11.16 85.6481 10.848 85.6481 10.4V9.944C85.6481 9.496 85.7681 9.184 86.0081 9.008C86.2481 8.832 86.6321 8.744 87.1601 8.744C87.7201 8.744 88.1121 8.832 88.3361 9.008C88.5601 9.184 88.6721 9.496 88.6721 9.944V10.4C88.6721 10.864 88.5521 11.184 88.3121 11.36C88.0881 11.52 87.6961 11.6 87.1361 11.6ZM98.232 12.92C98.712 12.92 99.112 13.056 99.432 13.328C99.768 13.6 99.936 13.92 99.936 14.288C99.936 14.784 99.808 15.16 99.552 15.416C99.296 15.656 98.992 15.776 98.64 15.776C98.4 15.776 98.128 15.72 97.824 15.608C97.776 15.592 97.664 15.56 97.488 15.512C97.328 15.464 97.152 15.44 96.96 15.44C96.544 15.44 96.144 15.568 95.76 15.824C95.376 16.08 95.056 16.472 94.8 17C94.56 17.512 94.44 18.128 94.44 18.848V24.536C94.44 24.952 94.304 25.304 94.032 25.592C93.76 25.864 93.416 26 93 26C92.584 26 92.24 25.864 91.968 25.592C91.696 25.304 91.56 24.952 91.56 24.536V14.624C91.56 14.208 91.696 13.864 91.968 13.592C92.24 13.304 92.584 13.16 93 13.16C93.416 13.16 93.76 13.304 94.032 13.592C94.304 13.864 94.44 14.208 94.44 14.624V14.936C94.808 14.28 95.336 13.784 96.024 13.448C96.712 13.096 97.448 12.92 98.232 12.92ZM112.646 23.48C112.95 23.8 113.102 24.16 113.102 24.56C113.102 24.96 112.942 25.296 112.622 25.568C112.318 25.84 111.99 25.976 111.638 25.976C111.222 25.976 110.87 25.816 110.582 25.496L106.262 20.936L105.086 22.016V24.536C105.086 24.952 104.95 25.304 104.678 25.592C104.406 25.864 104.062 26 103.646 26C103.23 26 102.886 25.864 102.614 25.592C102.342 25.304 102.206 24.952 102.206 24.536V9.704C102.206 9.288 102.342 8.944 102.614 8.672C102.886 8.384 103.23 8.24 103.646 8.24C104.062 8.24 104.406 8.384 104.678 8.672C104.95 8.944 105.086 9.288 105.086 9.704V18.584L110.222 13.616C110.526 13.312 110.878 13.16 111.278 13.16C111.63 13.16 111.942 13.312 112.214 13.616C112.502 13.904 112.646 14.2 112.646 14.504C112.646 14.888 112.454 15.248 112.07 15.584L108.446 18.92L112.646 23.48ZM125.929 12.92C126.345 12.92 126.689 13.056 126.961 13.328C127.233 13.6 127.369 13.952 127.369 14.384V24.536C127.369 24.952 127.233 25.304 126.961 25.592C126.689 25.864 126.345 26 125.929 26C125.513 26 125.169 25.864 124.897 25.592C124.641 25.32 124.505 24.976 124.489 24.56C124.089 25.024 123.545 25.424 122.857 25.76C122.185 26.08 121.473 26.24 120.721 26.24C119.617 26.24 118.617 25.96 117.721 25.4C116.825 24.824 116.113 24.032 115.585 23.024C115.073 22.016 114.817 20.872 114.817 19.592C114.817 18.312 115.073 17.168 115.585 16.16C116.097 15.136 116.793 14.344 117.673 13.784C118.569 13.208 119.553 12.92 120.625 12.92C121.393 12.92 122.113 13.064 122.785 13.352C123.457 13.624 124.025 13.976 124.489 14.408V14.384C124.489 13.968 124.625 13.624 124.897 13.352C125.169 13.064 125.513 12.92 125.929 12.92ZM121.081 23.6C122.121 23.6 122.969 23.224 123.625 22.472C124.281 21.704 124.609 20.744 124.609 19.592C124.609 18.44 124.281 17.48 123.625 16.712C122.969 15.944 122.121 15.56 121.081 15.56C120.057 15.56 119.217 15.944 118.561 16.712C117.905 17.48 117.577 18.44 117.577 19.592C117.577 20.744 117.897 21.704 118.537 22.472C119.193 23.224 120.041 23.6 121.081 23.6ZM137.234 12.92C138.818 12.92 139.914 13.408 140.522 14.384C141.13 15.344 141.434 16.68 141.434 18.392V24.536C141.434 24.952 141.298 25.304 141.026 25.592C140.754 25.864 140.41 26 139.994 26C139.578 26 139.234 25.864 138.962 25.592C138.69 25.304 138.554 24.952 138.554 24.536V18.392C138.554 17.512 138.378 16.824 138.026 16.328C137.69 15.816 137.09 15.56 136.226 15.56C135.33 15.56 134.626 15.832 134.114 16.376C133.618 16.904 133.37 17.576 133.37 18.392V24.536C133.37 24.952 133.234 25.304 132.962 25.592C132.69 25.864 132.346 26 131.93 26C131.514 26 131.17 25.864 130.898 25.592C130.626 25.304 130.49 24.952 130.49 24.536V9.704C130.49 9.288 130.626 8.944 130.898 8.672C131.17 8.384 131.514 8.24 131.93 8.24C132.346 8.24 132.69 8.384 132.962 8.672C133.234 8.944 133.37 9.288 133.37 9.704V15.008C133.802 14.432 134.346 13.944 135.002 13.544C135.674 13.128 136.418 12.92 137.234 12.92Z" fill="#3D4F9F"/>
</svg>
