<svg xmlns="http://www.w3.org/2000/svg" width="189.52" height="52.91"><style>.st1{stroke:#fff;stroke-linecap:round;stroke-linejoin:round;stroke-miterlimit:10}.st1,.st2{fill:#fcfafa}</style><path fill="#fff" stroke="#fff" stroke-linecap="round" stroke-linejoin="round" stroke-miterlimit="10" d="M36.25.99h-2.87l-5.32 26.23-.94 5.39-1.06-5.14L19.7.99h-2.52l-6.46 26.48-1.09 5.09-.87-5.34L3.39.99H.5l7.65 36.03h2.69l6.9-28.08.7-3.34.71 3.34 6.76 28.08h2.67l7.1-33.35h8.09v33.35h2.85V3.67h10.24V.99z"/><path class="st1" d="M57.2 37.02V.99h9.53c4.21 0 7.56 1.34 10.06 4.01 2.5 2.67 3.77 6.33 3.82 10.98v5.84c0 4.73-1.25 8.45-3.75 11.15-2.5 2.7-5.94 4.04-10.33 4.04H57.2zm7.27-29.96v23.92h2.18c2.42 0 4.13-.64 5.12-1.92.99-1.28 1.51-3.48 1.56-6.62v-6.26c0-3.36-.47-5.71-1.41-7.04s-2.54-2.02-4.8-2.09h-2.65zM93.42 37.02h-7.27V.99h7.27v36.03zM114.75 27.57c0-1.47-.38-2.58-1.13-3.33-.75-.75-2.12-1.53-4.09-2.34-3.61-1.37-6.21-2.97-7.79-4.81-1.58-1.84-2.38-4.01-2.38-6.52 0-3.03 1.08-5.47 3.23-7.31 2.15-1.84 4.89-2.76 8.2-2.76 2.21 0 4.18.47 5.91 1.4 1.73.93 3.06 2.25 4 3.95.93 1.7 1.4 3.63 1.4 5.79h-7.25c0-1.68-.36-2.96-1.08-3.85-.72-.88-1.75-1.32-3.1-1.32-1.27 0-2.26.38-2.97 1.13-.71.75-1.06 1.76-1.06 3.03 0 .99.4 1.88 1.19 2.68.79.8 2.19 1.63 4.21 2.49 3.51 1.27 6.07 2.83 7.66 4.68 1.59 1.85 2.39 4.2 2.39 7.05 0 3.13-1 5.58-2.99 7.35-2 1.77-4.71 2.65-8.14 2.65-2.33 0-4.45-.48-6.36-1.43-1.91-.96-3.41-2.33-4.49-4.11-1.08-1.78-1.62-3.88-1.62-6.31h7.3c0 2.08.4 3.59 1.21 4.53.81.94 2.13 1.41 3.96 1.41 2.52-.02 3.79-1.37 3.79-4.05zM151.31 25.02c-.18 4.11-1.34 7.22-3.46 9.33-2.13 2.11-5.13 3.17-9.01 3.17-4.07 0-7.2-1.34-9.36-4.02s-3.25-6.5-3.25-11.47v-6.06c0-4.95 1.12-8.76 3.36-11.44 2.24-2.68 5.36-4.02 9.35-4.02 3.93 0 6.91 1.1 8.94 3.29 2.04 2.19 3.2 5.34 3.48 9.45h-7.3c-.07-2.54-.46-4.29-1.18-5.26-.72-.96-2.03-1.45-3.95-1.45-1.95 0-3.32.68-4.13 2.04s-1.24 3.6-1.29 6.72v6.8c0 3.58.4 6.04 1.2 7.37.8 1.34 2.17 2 4.12 2 1.91 0 3.23-.47 3.96-1.4.73-.93 1.14-2.62 1.24-5.06h7.28z"/><path class="st2" d="M172.08.01c-9.64 0-17.44 7.81-17.44 17.44 0 .24.01.48.03.73.05.95.35 4.58 2.1 7.63.08.15.31.57.57 1.05l.73 1.34c.31.57.57 1.05.57 1.04 0 0 .01.01.01.03.01.01.29.53.6 1.11l4.1 7.57c.31.57.84.58 1.17.01l.15-.27c.33-.57.86-1.5 1.19-2.06l.18-.31c.33-.57.86-.57 1.19 0l.18.31c.33.57.86 1.5 1.19 2.06l.18.31c.33.57.86.57 1.19 0l.18-.31c.33-.57.86-1.5 1.19-2.06l.18-.31c.32-.57.86-.57 1.19 0l.18.31c.33.57.86 1.5 1.19 2.06l.18.31c.33.57.87.57 1.19 0l.19-.31c.33-.57.87-1.5 1.19-2.06l.18-.31c.33-.57.86-.57 1.2 0l.18.31c.33.57.86 1.5 1.19 2.06l.17.29c.33.57.85.56 1.16-.02l4.02-7.56c.31-.58.56-1.05.57-1.06 0-.01.01-.03.01-.03l.56-1.05.76-1.44c.31-.58.57-1.06.57-1.06 0-.01.02-.04.03-.06 0 0 0-.01.01-.01 1.6-2.85 1.95-6.17 2.02-7.33.03-.31.05-.62.05-.92.01-9.63-7.79-17.43-17.43-17.43zm.05 28.61c-5.97 0-10.8-4.84-10.8-10.81 0-5.97 4.84-10.81 10.8-10.81 5.97 0 10.81 4.84 10.81 10.81 0 5.98-4.84 10.81-10.81 10.81zM176.38 46.02c.24-.4.05-.72-.41-.72h-7.72c-.46 0-.65.33-.42.72l3.83 6.59c.23.4.61.4.85 0l3.87-6.59z"/></svg>